<svg width="33" height="26" viewBox="0 0 33 26" fill="none" xmlns="http://www.w3.org/2000/svg">
<path d="M9.44382 26C9.14296 26 8.84211 25.9 8.64155 25.6C3.22622 19.5 1.92253 18.1 1.62168 17.7C0.91969 16.8 0.518555 15.6 0.518555 14.4C0.518555 11.4 2.92537 9 6.03416 9C7.33785 9 8.54126 9.5 9.5441 10.3C10.5469 9.5 11.8506 9 13.054 9C16.0625 9 18.5696 11.4 18.5696 14.4C18.5696 15.7 18.0682 16.9 17.266 17.8L10.2461 25.7C10.0455 25.9 9.84495 26 9.44382 26ZM3.42679 16.5C3.72764 16.9 6.93672 20.5 9.5441 23.4L15.7617 16.4C16.2631 15.9 16.4637 15.2 16.4637 14.4C16.4637 12.6 14.9594 11.1 13.1543 11.1C12.1515 11.1 11.1486 11.6 10.4467 12.4C10.1458 12.7 9.84495 12.8 9.5441 12.8C9.24325 12.8 8.9424 12.6 8.74183 12.4C8.03984 11.6 7.037 11.1 6.03416 11.1C4.22906 11.1 2.7248 12.6 2.7248 14.4C2.62452 15.3 3.02565 16 3.42679 16.5C3.3265 16.5 3.3265 16.5 3.42679 16.5Z" fill="black"/>
<rect x="13" width="20" height="20" rx="10" fill="#7DB54F"/>
<path d="M19.1309 11.76H20.5309V6.92L20.6309 6.33L20.2309 6.8L19.1309 7.59L18.7509 7.08L20.9509 5.38H21.3109V11.76H22.6809V12.5H19.1309V11.76ZM26.9601 7.09C26.9601 7.44333 26.8934 7.80667 26.7601 8.18C26.6334 8.54667 26.4634 8.91667 26.2501 9.29C26.0434 9.66333 25.8101 10.03 25.5501 10.39C25.2901 10.7433 25.0301 11.08 24.7701 11.4L24.2801 11.83V11.87L24.9201 11.76H27.1001V12.5H23.1201V12.21C23.2668 12.0567 23.4434 11.8667 23.6501 11.64C23.8568 11.4133 24.0701 11.1633 24.2901 10.89C24.5168 10.61 24.7368 10.3167 24.9501 10.01C25.1701 9.69667 25.3668 9.38 25.5401 9.06C25.7201 8.74 25.8634 8.42333 25.9701 8.11C26.0768 7.79667 26.1301 7.5 26.1301 7.22C26.1301 6.89333 26.0368 6.62333 25.8501 6.41C25.6634 6.19 25.3801 6.08 25.0001 6.08C24.7468 6.08 24.5001 6.13333 24.2601 6.24C24.0201 6.34 23.8134 6.45667 23.6401 6.59L23.3101 6.02C23.5434 5.82 23.8201 5.66333 24.1401 5.55C24.4601 5.43667 24.8034 5.38 25.1701 5.38C25.4568 5.38 25.7101 5.42333 25.9301 5.51C26.1501 5.59 26.3368 5.70667 26.4901 5.86C26.6434 6.01333 26.7601 6.19667 26.8401 6.41C26.9201 6.61667 26.9601 6.84333 26.9601 7.09Z" fill="white"/>
</svg>
